<svg height="480pt" viewBox="0 -8 480.00081 480" width="480pt" xmlns="http://www.w3.org/2000/svg"><path d="m161.039062 276.402344-33.039062 16.558594v-17.839844l27.921875-14zm0 0" fill="#333"/><path d="m176 321.28125-48 27.359375v-18.480469l42.800781-24.398437zm0 0" fill="#333"/><path d="m352 275.121094v17.839844l-33.039062-16.558594 5.121093-15.28125zm0 0" fill="#333"/><path d="m352 330.160156v18.480469l-48-27.359375 5.199219-15.519531zm0 0" fill="#333"/><path d="m479.441406 173.039062-32-80c-1.214844-3.042968-4.164062-5.042968-7.441406-5.039062h-400c-3.277344-.003906-6.226562 1.996094-7.441406 5.039062l-32 80c-.886719 2.25-.710938 4.777344.480468 6.882813 1.164063 2.097656 3.230469 3.546875 5.601563 3.917969l131.28125 23.199218 18 54.082032 5.117187 15.28125 9.761719 29.359375 5.199219 15.519531 8.402344 25.277344c1.128906 3.238281 4.167968 5.417968 7.597656 5.441406h96c3.429688-.023438 6.472656-2.203125 7.601562-5.441406l8.398438-25.277344 5.199219-15.519531 9.761719-29.359375 5.121093-15.28125 18-54.082032 131.277344-23.199218c2.371094-.371094 4.441406-1.820313 5.601563-3.917969 1.191406-2.105469 1.367187-4.632813.480468-6.882813zm-319.441406-5.039062c0 4.417969-3.582031 8-8 8-.429688.011719-.855469-.011719-1.28125-.078125l-96-16c-2.320312-.386719-4.363281-1.757813-5.597656-3.761719-1.191406-2.035156-1.453125-4.480468-.71875-6.71875l8-24c1.128906-3.238281 4.167968-5.414062 7.597656-5.441406h88c4.417969 0 8 3.582031 8 8zm112 120h-64c-4.417969 0-8-3.582031-8-8s3.582031-8 8-8h64c4.417969 0 8 3.582031 8 8s-3.582031 8-8 8zm8-40h-80c-4.417969 0-8-3.582031-8-8s3.582031-8 8-8h80c4.417969 0 8 3.582031 8 8s-3.582031 8-8 8zm16-40h-112c-4.417969 0-8-3.582031-8-8s3.582031-8 8-8h112c4.417969 0 8 3.582031 8 8s-3.582031 8-8 8zm134.878906-51.839844c-1.234375 2.003906-3.277344 3.375-5.597656 3.761719l-96 16c-.425781.066406-.851562.089844-1.28125.078125-4.417969 0-8-3.582031-8-8v-40c0-4.417969 3.582031-8 8-8h88c3.429688.027344 6.472656 2.203125 7.601562 5.441406l8 24c.730469 2.238282.46875 4.683594-.722656 6.71875zm0 0" fill="#f9c60b"/><path d="m309.28125 88h-138.5625l6.882812-16 6.800782-15.917969 8.238281-19.203125c1.25-2.953125 4.148437-4.875 7.359375-4.878906h80c3.210938.003906 6.109375 1.925781 7.359375 4.878906l8.242187 19.203125 6.800782 15.917969zm0 0" fill="#333"/><path d="m184.402344 56.082031-6.800782 15.917969h-49.601562c-3.210938-.003906-6.109375-1.921875-7.359375-4.878906l-21.921875-51.121094h-50.71875c-4.417969 0-8-3.582031-8-8s3.582031-8 8-8h56c3.210938.00390625 6.109375 1.925781 7.359375 4.878906l21.921875 51.121094h50.71875c.136719-.011719.277344.015625.402344.082031zm0 0"/><path d="m440 8c0 4.417969-3.582031 8-8 8h-50.71875l-21.921875 51.121094c-1.25 2.957031-4.148437 4.875-7.359375 4.878906h-49.597656l-6.800782-15.917969c.121094-.066406.261719-.09375.398438-.082031h50.71875l21.921875-51.121094c1.25-2.953125 4.148437-4.87499975 7.359375-4.878906h56c4.417969 0 8 3.582031 8 8zm0 0"/><path d="m160 128v40c0 4.417969-3.582031 8-8 8-.429688.011719-.855469-.011719-1.28125-.078125l-96-16c-2.320312-.386719-4.363281-1.757813-5.597656-3.761719-1.191406-2.035156-1.453125-4.480468-.71875-6.71875l8-24c1.128906-3.238281 4.167968-5.414062 7.597656-5.441406h88c4.417969 0 8 3.582031 8 8zm0 0" fill="#f5e9be"/><path d="m430.878906 156.160156c-1.234375 2.003906-3.277344 3.375-5.597656 3.761719l-96 16c-.425781.066406-.851562.089844-1.28125.078125-4.417969 0-8-3.582031-8-8v-40c0-4.417969 3.582031-8 8-8h88c3.429688.027344 6.472656 2.203125 7.601562 5.441406l8 24c.730469 2.238282.46875 4.683594-.722656 6.71875zm0 0" fill="#f5e9be"/><path d="m304 200c0 4.417969-3.582031 8-8 8h-112c-4.417969 0-8-3.582031-8-8s3.582031-8 8-8h112c4.417969 0 8 3.582031 8 8zm0 0" fill="#666"/><path d="m288 240c0 4.417969-3.582031 8-8 8h-80c-4.417969 0-8-3.582031-8-8s3.582031-8 8-8h80c4.417969 0 8 3.582031 8 8zm0 0" fill="#666"/><path d="m280 280c0 4.417969-3.582031 8-8 8h-64c-4.417969 0-8-3.582031-8-8s3.582031-8 8-8h64c4.417969 0 8 3.582031 8 8zm0 0" fill="#666"/><path d="m80 296c0 4.417969 3.582031 8 8 8h40v48h-40c-4.417969 0-8 3.582031-8 8s3.582031 8 8 8h40v48h-40c-4.417969 0-8 3.582031-8 8s3.582031 8 8 8h38.960938c-4.789063 17.914062-20.457032 30.785156-38.960938 32h-48c-21.507812-1.347656-38.652344-18.492188-40-40v-24h40c4.417969 0 8-3.582031 8-8s-3.582031-8-8-8h-40v-48h40c4.417969 0 8-3.582031 8-8s-3.582031-8-8-8h-40v-48h40c4.417969 0 8-3.582031 8-8s-3.582031-8-8-8h-38.960938c4.789063-17.914062 20.460938-30.785156 38.960938-32h48c21.507812 1.347656 38.652344 18.492188 40 40v24h-40c-4.417969 0-8 3.582031-8 8zm0 0"/><g fill="#333"><path d="m48 264c0 4.417969-3.582031 8-8 8h-40v-8c-.0117188-2.699219.335938-5.390625 1.039062-8h38.960938c4.417969 0 8 3.582031 8 8zm0 0"/><path d="m128 288v16h-40c-4.417969 0-8-3.582031-8-8s3.582031-8 8-8zm0 0"/><path d="m48 328c0 4.417969-3.582031 8-8 8h-40v-16h40c4.417969 0 8 3.582031 8 8zm0 0"/><path d="m128 352v16h-40c-4.417969 0-8-3.582031-8-8s3.582031-8 8-8zm0 0"/><path d="m128 416v8c.015625 2.703125-.335938 5.390625-1.039062 8h-38.960938c-4.417969 0-8-3.582031-8-8s3.582031-8 8-8zm0 0"/><path d="m48 392c0 4.417969-3.582031 8-8 8h-40v-16h40c4.417969 0 8 3.582031 8 8zm0 0"/></g><path d="m400 296c0 4.417969-3.582031 8-8 8h-40v48h40c4.417969 0 8 3.582031 8 8s-3.582031 8-8 8h-40v48h40c4.417969 0 8 3.582031 8 8s-3.582031 8-8 8h-38.960938c4.789063 17.914062 20.460938 30.785156 38.960938 32h48c21.507812-1.347656 38.652344-18.492188 40-40v-24h-40c-4.417969 0-8-3.582031-8-8s3.582031-8 8-8h40v-48h-40c-4.417969 0-8-3.582031-8-8s3.582031-8 8-8h40v-48h-40c-4.417969 0-8-3.582031-8-8s3.582031-8 8-8h38.960938c-4.789063-17.914062-20.457032-30.785156-38.960938-32h-48c-21.507812 1.347656-38.652344 18.492188-40 40v24h40c4.417969 0 8 3.582031 8 8zm0 0"/><path d="m432 264c0 4.417969 3.582031 8 8 8h40v-8c.015625-2.699219-.335938-5.390625-1.039062-8h-38.960938c-4.417969 0-8 3.582031-8 8zm0 0" fill="#333"/><path d="m352 288v16h40c4.417969 0 8-3.582031 8-8s-3.582031-8-8-8zm0 0" fill="#333"/><path d="m432 328c0 4.417969 3.582031 8 8 8h40v-16h-40c-4.417969 0-8 3.582031-8 8zm0 0" fill="#333"/><path d="m352 352v16h40c4.417969 0 8-3.582031 8-8s-3.582031-8-8-8zm0 0" fill="#333"/><path d="m352 416v8c-.011719 2.703125.335938 5.390625 1.039062 8h38.960938c4.417969 0 8-3.582031 8-8s-3.582031-8-8-8zm0 0" fill="#333"/><path d="m432 392c0 4.417969 3.582031 8 8 8h40v-16h-40c-4.417969 0-8 3.582031-8 8zm0 0" fill="#333"/></svg>