<?xml version="1.0" encoding="iso-8859-1"?>
<!-- Generator: Adobe Illustrator 19.0.0, SVG Export Plug-In . SVG Version: 6.00 Build 0)  -->
<svg version="1.1" id="Capa_1" xmlns="http://www.w3.org/2000/svg" xmlns:xlink="http://www.w3.org/1999/xlink" x="0px" y="0px"
	 viewBox="0 0 512 512" style="enable-background:new 0 0 512 512;" xml:space="preserve">
<path style="fill:#57555C;" d="M204.799,108.583c0-3.414-2.767-6.181-6.181-6.181H40.314c-3.414,0-6.181,2.767-6.181,6.181v138.885
	h170.666V108.583z"/>
<path style="fill:#4B494F;" d="M198.618,102.402h-20.604c3.414,0,6.181,2.767,6.181,6.181v138.884h20.604V108.583
	C204.799,105.169,202.032,102.402,198.618,102.402z"/>
<path style="fill:#57555C;" d="M39.283,256.001H6.181c-3.414,0-6.181-2.767-6.181-6.181v-90.037c0-3.414,2.767-6.181,6.181-6.181
	h33.102V256.001z"/>
<path style="fill:#3BCD92;" d="M477.869,341.33H34.133l-0.001-34.13v-68.266c0-9.426,7.641-17.068,17.068-17.068h153.6V119.468
	h106.023c13.385,0,25.535,7.823,31.073,20.009l33.572,73.857l88.904,13.849c17.372,1.829,30.56,16.478,30.56,33.945v46.066
	L477.869,341.33z"/>
<g>
	<path style="fill:#36A882;" d="M464.372,227.183l-88.904-13.849l-33.572-73.858c-5.538-12.185-17.688-20.008-31.073-20.008h-20.604
		c13.385,0,25.535,7.823,31.073,20.008l33.572,73.858l88.904,13.849c17.372,1.829,30.56,16.478,30.56,33.945v46.066l0.585,34.136
		h20.604l-0.585-34.135V261.13C494.932,243.66,481.744,229.012,464.372,227.183z"/>
	<path style="fill:#36A882;" d="M238.933,307.201h102.402c18.851,0,34.133-15.282,34.133-34.133v-59.733h-0.001l-31.03-68.266
		H204.799v76.798v51.2C204.799,291.918,220.082,307.201,238.933,307.201z"/>
</g>
<path style="fill:#FD3A4E;" d="M34.132,285.87h27.954c3.414,0,6.181-2.767,6.181-6.181v-13.242c0-3.414-2.767-6.181-6.181-6.181
	H34.132V285.87z"/>
<path style="fill:#C0E3F0;" d="M344.438,145.069h-19.482c-4.397,0-7.388,4.462-5.717,8.529l22.96,55.904
	c0.952,2.319,3.211,3.833,5.717,3.833h27.552L344.438,145.069z"/>
<path style="fill:#4B494F;" d="M256,239.741h-17.066c-4.267,0-7.726,3.458-7.726,7.726c0,4.268,3.459,7.726,7.726,7.726H256
	c4.267,0,7.726-3.458,7.726-7.726C263.726,243.199,260.267,239.741,256,239.741z"/>
<g>
	<path style="fill:#C0E3F0;" d="M306.815,213.335h-72.722c-3.414,0-6.181-2.767-6.181-6.181V151.25c0-3.414,2.767-6.181,6.181-6.181
		h51.757c2.577,0,4.883,1.598,5.788,4.01l20.964,55.904C314.117,209.024,311.13,213.335,306.815,213.335z"/>
	<path style="fill:#C0E3F0;" d="M164.486,187.735H74.448c-3.414,0-6.181-2.767-6.181-6.181v-38.839c0-3.414,2.767-6.181,6.181-6.181
		h90.038c3.414,0,6.181,2.767,6.181,6.181v38.839C170.667,184.967,167.9,187.735,164.486,187.735z"/>
</g>
<g>
	<path style="fill:#85828C;" d="M475.514,341.331c-3.414,0-6.181-2.767-6.181-6.181v-21.77c0-3.414,2.767-6.181,6.181-6.181h30.305
		c3.414,0,6.181,2.767,6.181,6.181v21.77c0,3.414-2.767,6.181-6.181,6.181H475.514z"/>
	<path style="fill:#85828C;" d="M23.248,341.331c-3.414,0-6.181-2.767-6.181-6.181v-21.77c0-3.414,2.767-6.181,6.181-6.181h38.837
		c3.414,0,6.181,2.767,6.181,6.181v21.77c0,3.414-2.767,6.181-6.181,6.181H23.248z"/>
</g>
<circle style="fill:#57555C;" cx="392.53" cy="358.399" r="51.199"/>
<circle style="fill:#85828C;" cx="392.53" cy="358.399" r="25.599"/>
<path style="fill:#57555C;" d="M392.534,346.401c-4.268,0-7.726,3.459-7.726,7.726v8.534c0,4.267,3.458,7.726,7.726,7.726
	c4.268,0,7.726-3.459,7.726-7.726v-8.534C400.26,349.86,396.801,346.401,392.534,346.401z"/>
<path style="fill:#4B494F;" d="M392.533,307.198c-3.528,0-6.974,0.357-10.302,1.037c23.339,4.768,40.897,25.415,40.897,50.163
	c0,24.748-17.558,45.394-40.897,50.163c3.328,0.68,6.773,1.037,10.302,1.037c28.276,0,51.199-22.923,51.199-51.199
	C443.732,330.121,420.809,307.198,392.533,307.198z"/>
<circle style="fill:#57555C;" cx="119.47" cy="358.399" r="51.199"/>
<circle style="fill:#85828C;" cx="119.47" cy="358.399" r="25.599"/>
<path style="fill:#57555C;" d="M119.467,346.401c-4.268,0-7.726,3.459-7.726,7.726v8.534c0,4.267,3.458,7.726,7.726,7.726
	s7.726-3.459,7.726-7.726v-8.534C127.193,349.86,123.734,346.401,119.467,346.401z"/>
<path style="fill:#4B494F;" d="M119.465,307.198c-3.528,0-6.974,0.357-10.302,1.037c23.339,4.768,40.897,25.415,40.897,50.163
	c0,24.748-17.558,45.394-40.897,50.163c3.327,0.68,6.773,1.037,10.302,1.037c28.276,0,51.199-22.923,51.199-51.199
	C170.665,330.121,147.742,307.198,119.465,307.198z"/>
<path style="fill:#57555C;" d="M505.819,307.199h-20.604c3.414,0,6.181,2.767,6.181,6.181v21.77c0,3.414-2.767,6.181-6.181,6.181
	h20.604c3.414,0,6.181-2.767,6.181-6.181v-21.77C512,309.967,509.233,307.199,505.819,307.199z"/>
<path style="fill:#DE0B2B;" d="M62.086,260.265H41.482c3.414,0,6.181,2.767,6.181,6.181v13.242c0,3.414-2.767,6.181-6.181,6.181
	h20.604c3.414,0,6.181-2.767,6.181-6.181v-13.242C68.267,263.034,65.499,260.265,62.086,260.265z"/>
<path style="fill:#36A882;" d="M408.793,218.526l-15.453-2.408v39.881c0,3.996,3.047,7.333,7.027,7.694l94.564,8.597v-11.162
	c0-1.483-0.102-2.943-0.287-4.38l-85.852-7.805v-30.418H408.793z"/>
<g>
	<path style="fill:#A3CFE3;" d="M312.602,204.983l-20.964-55.904c-0.904-2.413-3.211-4.01-5.788-4.01h-20.604
		c2.576,0,4.883,1.599,5.788,4.01l20.964,55.904c1.515,4.041-1.472,8.352-5.788,8.352h20.604
		C311.13,213.335,314.118,209.024,312.602,204.983z"/>
	<path style="fill:#A3CFE3;" d="M375.468,213.333l-13.708-30.156l-17.323-38.109h-19.482c-0.371,0-0.726,0.042-1.074,0.103
		l30.983,68.163L375.468,213.333L375.468,213.333z"/>
	<path style="fill:#A3CFE3;" d="M164.486,136.533h-20.604c3.414,0,6.181,2.767,6.181,6.181v38.839c0,3.413-2.767,6.18-6.18,6.181
		h20.603c3.414,0,6.181-2.767,6.181-6.181v-38.839C170.667,139.301,167.9,136.533,164.486,136.533z"/>
</g>
<polygon style="fill:#85828C;" points="111.741,136.533 111.741,187.732 111.741,187.735 127.193,187.735 127.193,187.732 
	127.193,136.533 127.193,136.533 "/>
<rect x="13.526" y="153.599" style="fill:#4B494F;" width="20.604" height="102.4"/>
<g>
</g>
<g>
</g>
<g>
</g>
<g>
</g>
<g>
</g>
<g>
</g>
<g>
</g>
<g>
</g>
<g>
</g>
<g>
</g>
<g>
</g>
<g>
</g>
<g>
</g>
<g>
</g>
<g>
</g>
</svg>
