<?xml version="1.0" encoding="iso-8859-1"?>
<!-- Generator: Adobe Illustrator 19.0.0, SVG Export Plug-In . SVG Version: 6.00 Build 0)  -->
<svg version="1.1" id="Capa_1" xmlns="http://www.w3.org/2000/svg" xmlns:xlink="http://www.w3.org/1999/xlink" x="0px" y="0px"
	 viewBox="0 0 512 512" style="enable-background:new 0 0 512 512;" xml:space="preserve">
<path style="fill:#3C3A41;" d="M376.987,241.001c-8.291,0-14.999-6.709-14.999-14.999v-89.997c0-24.813,20.185-44.998,44.998-44.998
	c8.291,0,14.999,6.709,14.999,14.999s-6.709,14.999-14.999,14.999c-8.276,0-14.999,6.724-14.999,14.999v89.997
	C391.986,234.292,385.277,241.001,376.987,241.001z"/>
<path style="fill:#E61E14;" d="M284.99,61.007H134.995c-8.291,0-14.999-6.709-14.999-14.999s6.709-14.999,14.999-14.999H284.99
	c8.291,0,14.999,6.709,14.999,14.999S293.281,61.007,284.99,61.007z"/>
<path style="fill:#FF2121;" d="M511.081,264.699l-1.8,6.301l-57.297,14.999l49.499,14.999l-15.9,58.498l-100.495,31.499H251.091
	l-26.099-17.099L41.099,254.5L57.598,71.806c2.1-23.1,21.3-40.799,44.698-40.799h152.695c5.7,0,10.8,3.3,13.5,8.399l25.799,51.599
	l-9.3,29.999v90.097l181.994-0.1c13.5,0,26.099,6,34.798,16.499C510.482,238,513.782,251.5,511.081,264.699z"/>
<path style="fill:#E61E14;" d="M511.081,264.699l-1.8,6.301l-57.297,14.999l49.499,14.999l-15.9,58.498l-100.495,31.499H251.091
	l-26.099-16.999V31.108l29.999-0.1c5.7,0,10.8,3.3,13.5,8.399l25.799,51.599l-9.3,29.999v90.097l181.994-0.1
	c13.5,0,26.099,6,34.798,16.499C510.482,238,513.782,251.5,511.081,264.699z"/>
<path style="fill:#3C3A41;" d="M436.985,330.998c-41.399,0-74.997,33.599-74.997,74.997s33.599,74.997,74.997,74.997
	s74.997-33.599,74.997-74.997S478.383,330.998,436.985,330.998z"/>
<path style="fill:#D9D9D9;" d="M436.985,360.997c-24.9,0-44.998,20.098-44.998,44.998c0,24.898,20.098,44.998,44.998,44.998
	c24.9,0,44.998-20.1,44.998-44.998C481.983,381.095,461.885,360.997,436.985,360.997z"/>
<path style="fill:#FCBF29;" d="M314.989,271c-8.291,0-14.999,6.709-14.999,14.999c0,8.291,6.709,14.999,14.999,14.999h186.353
	l8.09-29.999H314.989z"/>
<path style="fill:#57555C;" d="M134.995,211.002h194.983c-0.834-2.354-34.876-116.975-35.689-119.996H134.995
	c-8.284,0-14.999,6.716-14.999,14.999v89.997C119.996,204.286,126.712,211.002,134.995,211.002z"/>
<path style="fill:#3C3A41;" d="M294.29,91.006h-69.298v119.996h104.986C329.145,208.65,295.104,94.026,294.29,91.006z"/>
<rect x="209.993" y="86.007" style="fill:#FF2121;" width="29.999" height="131.995"/>
<rect x="224.992" y="86.007" style="fill:#E61E14;" width="14.999" height="131.995"/>
<path style="fill:#57555C;" d="M134.995,211.002C60.599,211.002,0,271.599,0,345.997c0,74.396,61.599,134.995,135.995,134.995
	s133.995-60.599,133.995-134.995C269.991,271.599,209.392,211.002,134.995,211.002z"/>
<path style="fill:#3C3A41;" d="M269.991,345.997c0,74.396-59.599,134.995-133.995,134.995l-1-269.991
	C209.392,211.002,269.991,271.599,269.991,345.997z"/>
<path style="fill:#E5E5E5;" d="M134.995,241.001c-57.898,0-104.996,47.098-104.996,104.996s47.098,104.996,104.996,104.996
	s104.996-47.098,104.996-104.996S192.893,241.001,134.995,241.001z"/>
<path style="fill:#C8C6CD;" d="M239.992,345.997c0,57.898-47.098,104.996-104.996,104.996V241.001
	C192.893,241.001,239.992,288.099,239.992,345.997z"/>
<path style="fill:#57555C;" d="M134.995,271c-41.399,0-74.997,33.599-74.997,74.997s33.599,74.997,74.997,74.997
	s74.997-33.599,74.997-74.997S176.394,271,134.995,271z"/>
<g>
</g>
<g>
</g>
<g>
</g>
<g>
</g>
<g>
</g>
<g>
</g>
<g>
</g>
<g>
</g>
<g>
</g>
<g>
</g>
<g>
</g>
<g>
</g>
<g>
</g>
<g>
</g>
<g>
</g>
</svg>
